<svg width="80" height="30" viewBox="0 0 80 30" fill="none" xmlns="http://www.w3.org/2000/svg">
<path d="M28.6998 18.3942C28.6998 26.2228 23.0649 28.9758 16.4837 28.9758C9.90247 28.9758 8.483 27.7714 6.24624 25.4056V28.5886H0.310242V0.75824H6.24624V11.2968C8.483 8.97402 12.0532 7.72659 16.4837 7.72659C23.0649 7.72659 28.6998 10.5225 28.6998 18.3512V18.3942ZM22.7208 18.3942C22.7208 14.3078 19.8388 12.7593 14.505 12.7593C9.17124 12.7593 6.24624 14.3078 6.24624 18.3942C6.24624 22.4806 9.17124 23.9861 14.505 23.9861C19.8388 23.9861 22.7208 22.4376 22.7208 18.3942Z" fill="#E7E7E7"/>
<path d="M52.4009 21.2762H58.3369C56.9604 26.4809 51.8847 28.9758 44.3141 28.9758C36.7436 28.9758 30.4634 25.9217 30.4634 18.3942C30.4634 10.8666 36.3564 7.76959 44.6582 7.76959C52.96 7.76959 58.681 10.4365 58.681 19.7706H36.5285C37.1737 23.0398 40.3138 24.1151 44.3141 24.1151C48.3145 24.1151 50.9384 23.3409 52.4439 21.2762H52.4009ZM36.7005 15.9854H52.2718C51.2825 13.1034 48.3145 12.2861 44.5722 12.2861C40.83 12.2861 37.6469 13.1034 36.7005 15.9854Z" fill="#E7E7E7"/>
<path d="M69.7787 13.1034V19.0394C69.7787 22.9967 70.553 24.0291 74.1662 24.0291C77.7794 24.0291 77.0912 24.0291 79.5 23.6849V28.5026C77.5213 28.8467 75.2416 29.0187 72.4886 29.0187C67.1979 29.0187 63.7997 27.0401 63.7997 22.5235V13.1464H58.3799V8.15669H63.7997V3.89825L69.7787 2.17767V8.11368H79.5V13.1034H69.7787Z" fill="#E7E7E7"/>
</svg>
