<svg width="95" height="63" viewBox="0 0 95 63" fill="none" xmlns="http://www.w3.org/2000/svg">
<path d="M45.7244 0.111572L39.8315 22.3501H27.5723L33.4653 0.111572H16.4746L0 62.0525H17.0338L23.3139 38.3945H35.573L29.2929 62.0525H46.2836L62.7152 0.111572H45.7244Z" fill="#E7E7E7"/>
<path d="M94.675 18.7369C94.675 5.57445 86.2011 0.584764 75.1464 0.0685898C72.5655 -0.0604538 68.8663 -0.0174392 66.3284 0.283662C64.5218 6.99393 63.5755 10.5641 61.9839 16.4571C64.7369 16.113 66.7585 15.941 69.6835 15.941C75.2754 15.941 77.8563 18.2637 77.8563 22.3071C77.8563 30.0067 70.2427 40.4592 51.4454 56.2026C50.8002 58.6114 50.37 60.1599 49.8969 62.0095H93.8577V46.0511H82.2008C88.911 38.6956 94.675 26.8236 94.675 18.6939V18.7369Z" fill="#E7E7E7"/>
</svg>
